<mxfile host="app.diagrams.net" modified="2024-02-19T09:41:13.798Z" agent="Mozilla/5.0 (Windows NT 10.0; Win64; x64) AppleWebKit/537.36 (KHTML, like Gecko) Chrome/121.0.0.0 Safari/537.36" etag="mX7l5zWE_TyCliVu3vGG" version="23.1.5" type="github">
  <diagram name="第 1 页" id="nsg2ubPnBzKOBekuAi5T">
    <mxGraphModel dx="954" dy="558" grid="1" gridSize="10" guides="1" tooltips="1" connect="1" arrows="1" fold="1" page="1" pageScale="1" pageWidth="827" pageHeight="1169" math="0" shadow="0">
      <root>
        <mxCell id="0" />
        <mxCell id="1" parent="0" />
        <mxCell id="FfNMXPe3jOcA6eIYlg-T-10" style="edgeStyle=orthogonalEdgeStyle;rounded=0;orthogonalLoop=1;jettySize=auto;html=1;exitX=1;exitY=0.5;exitDx=0;exitDy=0;entryX=0;entryY=0.5;entryDx=0;entryDy=0;" edge="1" parent="1" source="FfNMXPe3jOcA6eIYlg-T-1" target="FfNMXPe3jOcA6eIYlg-T-2">
          <mxGeometry relative="1" as="geometry" />
        </mxCell>
        <mxCell id="FfNMXPe3jOcA6eIYlg-T-1" value="PD RAW" style="rounded=0;whiteSpace=wrap;html=1;" vertex="1" parent="1">
          <mxGeometry x="80" y="200" width="80" height="40" as="geometry" />
        </mxCell>
        <mxCell id="FfNMXPe3jOcA6eIYlg-T-11" style="edgeStyle=orthogonalEdgeStyle;rounded=0;orthogonalLoop=1;jettySize=auto;html=1;exitX=1;exitY=0.5;exitDx=0;exitDy=0;entryX=0;entryY=0.5;entryDx=0;entryDy=0;" edge="1" parent="1" source="FfNMXPe3jOcA6eIYlg-T-2" target="FfNMXPe3jOcA6eIYlg-T-3">
          <mxGeometry relative="1" as="geometry" />
        </mxCell>
        <mxCell id="FfNMXPe3jOcA6eIYlg-T-2" value="L and R pixel&amp;nbsp;&lt;br&gt;separation" style="rounded=0;whiteSpace=wrap;html=1;" vertex="1" parent="1">
          <mxGeometry x="200" y="200" width="80" height="40" as="geometry" />
        </mxCell>
        <mxCell id="FfNMXPe3jOcA6eIYlg-T-12" style="edgeStyle=orthogonalEdgeStyle;rounded=0;orthogonalLoop=1;jettySize=auto;html=1;exitX=1;exitY=0.5;exitDx=0;exitDy=0;entryX=0;entryY=0.5;entryDx=0;entryDy=0;" edge="1" parent="1" source="FfNMXPe3jOcA6eIYlg-T-3" target="FfNMXPe3jOcA6eIYlg-T-4">
          <mxGeometry relative="1" as="geometry" />
        </mxCell>
        <mxCell id="FfNMXPe3jOcA6eIYlg-T-3" value="Apply Gain&lt;br&gt;Correction" style="rounded=0;whiteSpace=wrap;html=1;" vertex="1" parent="1">
          <mxGeometry x="320" y="200" width="80" height="40" as="geometry" />
        </mxCell>
        <mxCell id="FfNMXPe3jOcA6eIYlg-T-13" style="edgeStyle=orthogonalEdgeStyle;rounded=0;orthogonalLoop=1;jettySize=auto;html=1;exitX=1;exitY=0.5;exitDx=0;exitDy=0;entryX=0;entryY=0.5;entryDx=0;entryDy=0;" edge="1" parent="1" source="FfNMXPe3jOcA6eIYlg-T-4" target="FfNMXPe3jOcA6eIYlg-T-5">
          <mxGeometry relative="1" as="geometry" />
        </mxCell>
        <mxCell id="FfNMXPe3jOcA6eIYlg-T-4" value="Vertical&lt;br&gt;Binning" style="rounded=0;whiteSpace=wrap;html=1;" vertex="1" parent="1">
          <mxGeometry x="440" y="200" width="80" height="40" as="geometry" />
        </mxCell>
        <mxCell id="FfNMXPe3jOcA6eIYlg-T-14" style="edgeStyle=orthogonalEdgeStyle;rounded=0;orthogonalLoop=1;jettySize=auto;html=1;exitX=1;exitY=0.5;exitDx=0;exitDy=0;entryX=0;entryY=0.5;entryDx=0;entryDy=0;" edge="1" parent="1" source="FfNMXPe3jOcA6eIYlg-T-5" target="FfNMXPe3jOcA6eIYlg-T-6">
          <mxGeometry relative="1" as="geometry" />
        </mxCell>
        <mxCell id="FfNMXPe3jOcA6eIYlg-T-15" style="edgeStyle=orthogonalEdgeStyle;rounded=0;orthogonalLoop=1;jettySize=auto;html=1;exitX=0.5;exitY=1;exitDx=0;exitDy=0;entryX=0;entryY=0.5;entryDx=0;entryDy=0;" edge="1" parent="1" source="FfNMXPe3jOcA6eIYlg-T-5" target="FfNMXPe3jOcA6eIYlg-T-9">
          <mxGeometry relative="1" as="geometry" />
        </mxCell>
        <mxCell id="FfNMXPe3jOcA6eIYlg-T-5" value="phase difference&lt;br&gt;calculation" style="rounded=0;whiteSpace=wrap;html=1;" vertex="1" parent="1">
          <mxGeometry x="560" y="200" width="80" height="40" as="geometry" />
        </mxCell>
        <mxCell id="FfNMXPe3jOcA6eIYlg-T-16" style="edgeStyle=orthogonalEdgeStyle;rounded=0;orthogonalLoop=1;jettySize=auto;html=1;exitX=0.5;exitY=1;exitDx=0;exitDy=0;entryX=1;entryY=0.5;entryDx=0;entryDy=0;" edge="1" parent="1" source="FfNMXPe3jOcA6eIYlg-T-6" target="FfNMXPe3jOcA6eIYlg-T-9">
          <mxGeometry relative="1" as="geometry" />
        </mxCell>
        <mxCell id="FfNMXPe3jOcA6eIYlg-T-6" value="phase to Defocus" style="rounded=0;whiteSpace=wrap;html=1;" vertex="1" parent="1">
          <mxGeometry x="680" y="200" width="80" height="40" as="geometry" />
        </mxCell>
        <mxCell id="FfNMXPe3jOcA6eIYlg-T-20" style="edgeStyle=orthogonalEdgeStyle;rounded=0;orthogonalLoop=1;jettySize=auto;html=1;exitX=0.5;exitY=1;exitDx=0;exitDy=0;entryX=0.5;entryY=0;entryDx=0;entryDy=0;" edge="1" parent="1" source="FfNMXPe3jOcA6eIYlg-T-7" target="FfNMXPe3jOcA6eIYlg-T-6">
          <mxGeometry relative="1" as="geometry" />
        </mxCell>
        <mxCell id="FfNMXPe3jOcA6eIYlg-T-7" value="DCC" style="rounded=0;whiteSpace=wrap;html=1;" vertex="1" parent="1">
          <mxGeometry x="680" y="120" width="80" height="40" as="geometry" />
        </mxCell>
        <mxCell id="FfNMXPe3jOcA6eIYlg-T-19" style="edgeStyle=orthogonalEdgeStyle;rounded=0;orthogonalLoop=1;jettySize=auto;html=1;exitX=0.5;exitY=1;exitDx=0;exitDy=0;entryX=0.5;entryY=0;entryDx=0;entryDy=0;" edge="1" parent="1" source="FfNMXPe3jOcA6eIYlg-T-8" target="FfNMXPe3jOcA6eIYlg-T-5">
          <mxGeometry relative="1" as="geometry" />
        </mxCell>
        <mxCell id="FfNMXPe3jOcA6eIYlg-T-8" value="ROI" style="rounded=0;whiteSpace=wrap;html=1;" vertex="1" parent="1">
          <mxGeometry x="560" y="120" width="80" height="40" as="geometry" />
        </mxCell>
        <mxCell id="FfNMXPe3jOcA6eIYlg-T-9" value="AF Algorithm" style="rounded=0;whiteSpace=wrap;html=1;" vertex="1" parent="1">
          <mxGeometry x="630" y="280" width="80" height="40" as="geometry" />
        </mxCell>
        <mxCell id="FfNMXPe3jOcA6eIYlg-T-18" style="edgeStyle=orthogonalEdgeStyle;rounded=0;orthogonalLoop=1;jettySize=auto;html=1;exitX=0.5;exitY=1;exitDx=0;exitDy=0;entryX=0.5;entryY=0;entryDx=0;entryDy=0;" edge="1" parent="1" source="FfNMXPe3jOcA6eIYlg-T-17" target="FfNMXPe3jOcA6eIYlg-T-3">
          <mxGeometry relative="1" as="geometry" />
        </mxCell>
        <mxCell id="FfNMXPe3jOcA6eIYlg-T-17" value="Gain Map" style="rounded=0;whiteSpace=wrap;html=1;" vertex="1" parent="1">
          <mxGeometry x="320" y="120" width="80" height="40" as="geometry" />
        </mxCell>
        <mxCell id="FfNMXPe3jOcA6eIYlg-T-21" value="" style="rounded=1;whiteSpace=wrap;html=1;fillColor=none;dashed=1;" vertex="1" parent="1">
          <mxGeometry x="190" y="190" width="580" height="90" as="geometry" />
        </mxCell>
        <mxCell id="FfNMXPe3jOcA6eIYlg-T-22" value="PDlib" style="text;html=1;align=center;verticalAlign=middle;resizable=0;points=[];autosize=1;strokeColor=none;fillColor=none;" vertex="1" parent="1">
          <mxGeometry x="455" y="250" width="50" height="30" as="geometry" />
        </mxCell>
      </root>
    </mxGraphModel>
  </diagram>
</mxfile>
